<?xml version="1.0" encoding="iso-8859-1"?>
<!-- Uploaded to: SVG Repo, www.svgrepo.com, Generator: SVG Repo Mixer Tools -->
<svg fill="currentColor" height="20px" width="20px" version="1.1" id="Layer_1" xmlns="http://www.w3.org/2000/svg" xmlns:xlink="http://www.w3.org/1999/xlink"
	 viewBox="0 0 512 512" xml:space="preserve">
<g>
	<g>
		<path d="M489.739,211.478h-17.008c-1.492-18.064-10.109-34.659-24.161-46.076c6.94-18.44,5.511-39.358-4.609-56.881
			c-10.12-17.538-27.543-29.24-47.005-32.435c-3.195-19.462-14.897-36.886-32.435-47.01s-38.472-11.549-56.924-4.581
			C295.098,9.239,276.25,0,256,0s-39.098,9.239-51.597,24.489c-18.445-6.951-39.392-5.539-56.924,4.587
			c-17.538,10.125-29.244,27.549-32.441,47.01c-19.462,3.196-36.885,14.897-47.005,32.435c-10.12,17.522-11.549,38.44-4.604,56.881
			c-14.051,11.417-22.67,28.012-24.163,46.076H22.261c-9.223,0-16.696,7.473-16.696,16.696c0,92.392,52.082,178.081,133.565,221.24
			v12.499c0,27.619,22.468,50.087,50.087,50.087h133.565c27.619,0,50.087-22.468,50.087-50.087v-12.499
			c81.484-43.158,133.565-128.848,133.565-221.24C506.435,218.951,498.962,211.478,489.739,211.478z M72.818,211.479
			c2.036-11.983,10.457-20.907,19.4-24.892c4.598-2.049,8.027-6.065,9.332-10.929c1.305-4.864,0.343-10.06-2.62-14.136
			c-7.767-10.69-8.544-24.94-1.983-36.304c6.565-11.364,19.223-17.755,32.441-16.441c5.005,0.479,9.984-1.244,13.544-4.799
			c3.56-3.56,5.326-8.538,4.799-13.544c-1.375-13.147,5.077-25.875,16.445-32.441c11.375-6.544,25.62-5.772,36.304,1.983
			c4.076,2.951,9.266,3.919,14.13,2.615c4.864-1.299,8.881-4.728,10.929-9.332c5.38-12.07,17.337-19.869,30.462-19.869
			c13.125,0,25.076,7.799,30.456,19.87c2.049,4.604,6.065,8.027,10.929,9.332c4.864,1.316,10.06,0.348,14.13-2.615
			c10.68-7.761,24.929-8.549,36.31-1.983c11.364,6.565,17.815,19.294,16.441,32.441c-0.528,5.005,1.239,9.984,4.799,13.544
			c3.561,3.56,8.51,5.315,13.544,4.799c13.24-1.305,25.875,5.077,32.441,16.441c6.56,11.364,5.782,25.62-1.983,36.31
			c-2.956,4.076-3.919,9.266-2.615,14.13c1.305,4.864,4.734,8.881,9.332,10.929c8.94,3.985,17.361,12.909,19.394,24.891H72.818z"/>
	</g>
</g>
</svg>
