<svg fill="currentColor" height="20" width="20" xmlns="http://www.w3.org/2000/svg" viewBox="0 0 512 512" xml:space="preserve"><path class="st0" d="M511.903 253.069c-1.554-48.548-44.376-84.942-104.409-88.656-120.864-7.486-109.509-67.345-209.663-73.722a261 261 0 0 0-16.662-.536c-102.294 0-171.103 61.839-180.098 137.418-.548 4.591-.839 9.124-.968 13.612H0v52.824h.31c3.218 66.926 53.423 119.234 135.051 121.51 48.123 1.342 182.039 5.082 224.552 6.268 69.628 1.94 136.721-44.738 149.856-104.255.87-3.94 1.418-7.815 1.767-11.639H512v-52.824zm-27.927 16.946c-10.169 46.098-63.947 83.595-119.866 83.595-1.154 0-2.308-.02-3.463-.046L304.4 351.99l-168.305-4.694c-36.878-1.032-66.784-13.638-86.496-36.458-18.042-20.898-25.967-49.361-22.304-80.144 7.996-67.196 71.272-114.127 153.874-114.127 4.913 0 9.956.162 14.985.484 40.514 2.579 58.118 14.489 80.409 29.578 27.554 18.642 58.789 39.779 129.3 44.144 29.797 1.844 54.783 13.387 68.557 31.655 10.149 13.469 13.457 29.925 9.556 47.587"/><path class="st0" d="M297.455 186.182 192.898 324.805l66.236 1.844 91.552-121.381c-21.995-4.842-39.025-11.684-53.231-19.086m-32.415-19.938c-17.926-12.136-30.519-20.634-56.144-23.968L85.284 306.17c14.644 10.652 33.898 16.572 56.686 17.21l13.128.368 115.81-153.558a1015 1015 0 0 1-5.868-3.946M56.273 233.125c-2.166 18.228.767 35.265 8.267 49.367L171.038 141.29c-62.322 4.603-108.716 41.061-114.765 91.835m341.742-21.486a364 364 0 0 1-12.768-1.019L296.94 327.707l59.472 1.657c.961.019 1.922.038 2.882.038 44.286 0 88.27-29.771 96.046-65.03 2.528-11.465.594-21.556-5.764-29.99-9.828-13.031-28.625-21.324-51.561-22.743"/></svg>
