<?xml version="1.0" encoding="utf-8"?>

<!DOCTYPE svg PUBLIC "-//W3C//DTD SVG 1.1//EN" "http://www.w3.org/Graphics/SVG/1.1/DTD/svg11.dtd">
<!-- Uploaded to: SVG Repo, www.svgrepo.com, Generator: SVG Repo Mixer Tools -->
<svg fill="currentColor" height="20px" width="20px" version="1.1" id="_x32_" xmlns="http://www.w3.org/2000/svg" xmlns:xlink="http://www.w3.org/1999/xlink"
	 viewBox="0 0 512 512"  xml:space="preserve">
<g>
	<path class="st0" d="M511.903,253.069c-1.554-48.548-44.376-84.942-104.409-88.656c-120.864-7.486-109.509-67.345-209.663-73.722
		c-5.642-0.361-11.207-0.536-16.662-0.536c-102.294,0-171.103,61.839-180.098,137.418c-0.548,4.591-0.839,9.124-0.968,13.612H0
		v52.824h0.31c3.218,66.926,53.423,119.234,135.051,121.51c48.123,1.342,182.039,5.082,224.552,6.268
		c69.628,1.94,136.721-44.738,149.856-104.255c0.87-3.94,1.418-7.815,1.767-11.639H512v-52.824H511.903z M483.976,270.015
		c-10.169,46.098-63.947,83.595-119.866,83.595c-1.154,0-2.308-0.02-3.463-0.046l-56.247-1.574l-168.305-4.694
		c-36.878-1.032-66.784-13.638-86.496-36.458c-18.042-20.898-25.967-49.361-22.304-80.144
		c7.996-67.196,71.272-114.127,153.874-114.127c4.913,0,9.956,0.162,14.985,0.484c40.514,2.579,58.118,14.489,80.409,29.578
		c27.554,18.642,58.789,39.779,129.3,44.144c29.797,1.844,54.783,13.387,68.557,31.655
		C484.569,235.897,487.877,252.353,483.976,270.015z"/>
	<path class="st0" d="M297.455,186.182L192.898,324.805l66.236,1.844l91.552-121.381
		C328.691,200.426,311.661,193.584,297.455,186.182z"/>
	<path class="st0" d="M265.04,166.244c-17.926-12.136-30.519-20.634-56.144-23.968L85.284,306.17
		c14.644,10.652,33.898,16.572,56.686,17.21l13.128,0.368l115.81-153.558C268.915,168.862,266.956,167.54,265.04,166.244z"/>
	<path class="st0" d="M56.273,233.125c-2.166,18.228,0.767,35.265,8.267,49.367l106.498-141.202
		C108.716,145.893,62.322,182.351,56.273,233.125z"/>
	<path class="st0" d="M398.015,211.639c-4.398-0.271-8.641-0.619-12.768-1.019L296.94,327.707l59.472,1.657
		c0.961,0.019,1.922,0.038,2.882,0.038c44.286,0,88.27-29.771,96.046-65.03c2.528-11.465,0.594-21.556-5.764-29.99
		C439.748,221.351,420.951,213.058,398.015,211.639z"/>
</g>
</svg>
