<svg height="20" width="20" xmlns="http://www.w3.org/2000/svg" viewBox="0 0 17.208 17.208" xml:space="preserve"><path style="fill:currentColor" d="m12.889 2.805-.324.136a2.8 2.8 0 0 0-1.044.753q.348.163.667.411c.473.385.792.801 1.042 1.353l.376.825-.9-.111c-.645-.078-1.077.066-1.496.205a5 5 0 0 1-.529.156q.018.114.027.229c.04.456-.021.919-.179 1.376a3.54 3.54 0 0 1-.94 1.425l-.297.279-.337-.228a3.55 3.55 0 0 1-1.151-1.249 3.4 3.4 0 0 1-.378-1.13c-.206.036-.41.043-.61.051-.44.017-.896.034-1.471.336l-.803.423.059-.905c.039-.604.19-1.105.492-1.625a3.4 3.4 0 0 1 .646-.784q-.086-.076-.168-.153c-.324-.299-.659-.609-1.28-.802l-.867-.27.531-.467C.957 3.942 0 6.579 0 9.539c0 4.146 3.852 7.507 8.604 7.507s8.604-3.361 8.604-7.507c0-3.056-1.103-5.959-4.319-6.734"/><path style="fill:currentColor" d="M6.333 4.893a2.8 2.8 0 0 0-.802.864c-.213.366-.385.79-.424 1.402 1.273-.669 2.066-.154 2.809-.664q-.025.24-.006.477.039.575.336 1.13c.208.369.485.732.994 1.077.446-.421.662-.824.809-1.222a2.75 2.75 0 0 0-.015-1.906c.805.116 1.377-.563 2.733-.396a3.04 3.04 0 0 0-.893-1.162 2.8 2.8 0 0 0-1.288-.569c.47-.394.772-1.041 1.783-1.463a3.04 3.04 0 0 0-1.353-.565 2.8 2.8 0 0 0-1.177.07c-.37.102-.72.281-1.046.546a3.4 3.4 0 0 0-.363.362A24 24 0 0 0 7.403.162l-.347.161c.011.025.565 1.231 1.023 2.724a1 1 0 0 0-.076-.061 2.82 2.82 0 0 0-2.271-.401c-.409.109-.83.287-1.292.692 1.225.381 1.515 1.157 2.19 1.437a3 3 0 0 0-.297.179m2.546-.739q.008.001.014.004l-.055.027z"/></svg>
