<!DOCTYPE svg PUBLIC "-//W3C//DTD SVG 1.1//EN" "http://www.w3.org/Graphics/SVG/1.1/DTD/svg11.dtd">

<!-- Uploaded to: SVG Repo, www.svgrepo.com, Transformed by: SVG Repo Mixer Tools -->
<svg height="20" width="20" version="1.1" id="_x32_" xmlns="http://www.w3.org/2000/svg" xmlns:xlink="http://www.w3.org/1999/xlink" viewBox="0 0 512.00 512.00" xml:space="preserve" fill="red" stroke="red" stroke-width="0.00512">

<g id="SVGRepo_bgCarrier" stroke-width="0"/>

<g id="SVGRepo_tracerCarrier" stroke-linecap="round" stroke-linejoin="round"/>

<g id="SVGRepo_iconCarrier"> <style type="text/css"> .st0{fill:red;} </style> <g> <path class="st0" d="M435.805,263.688c-30.879-43.965-65.1-61.985-94.43-81.57c-9.76-6.539-18.977-13.265-27.09-21.346 c-10.84-10.734-19.578-24.137-24.214-41.516c-2.678-9.914-4.072-21.086-4.113-33.856c-0.093-26.449-0.122-45.872-0.122-59.997 c0-11.846,0.029-19.942,0.041-25.402h-59.936c0.028,5.46,0.04,13.557,0.04,25.402c0,14.125-0.025,33.548-0.105,59.997 c-0.066,19.139-3.21,34.749-9.059,47.811c-5.817,13.07-14.304,23.366-24.027,32.047c-6.498,5.793-13.557,10.921-20.948,15.934 c-29.634,19.95-64.464,37.832-95.83,82.495C56.675,291.2,44.594,326.8,44.619,361.354c0,22.036,4.835,43.592,15.504,62.78 c10.693,19.196,27.184,36.152,51.369,49.118c9.42,5.03,20.031,9.419,31.889,13.062c-2.346-4.089-4.41-8.405-6.183-12.94 c-7.164-18.312-9.976-39.819-9.987-63.088c0-21.11,2.357-43.698,6.284-66.618l19.593,3.367c-3.797,22.06-6.008,43.617-6.008,63.251 c0,16.218,1.521,31.114,4.795,43.86c3.249,12.745,8.232,23.244,14.88,31.114c4.462,5.241,9.642,9.403,15.873,12.494 c19.407,9.614,36.282,14.271,50.014,14.246c6.567,0,12.438-1.022,17.792-3.018c5.367-2.004,10.243-4.982,14.851-9.192 c9.193-8.365,17.29-21.938,23.334-41.759c7.927-25.881,10.896-51.397,10.896-75.233c0.012-46.684-11.415-86.828-18.993-110.032 c-2.531-7.78-4.596-13.557-5.834-17.614l19.046-5.72c0.922,3.116,3.092,9.209,5.688,17.184c2.613,8.015,5.7,18.06,8.657,29.735 c5.914,23.342,11.309,53.19,11.309,86.446c0,25.476-3.172,52.996-11.76,81.059c-5.074,16.527-11.63,30.124-19.979,40.874 c-0.24,0.292-0.495,0.568-0.722,0.86c4.251,0.284,8.381,0.454,12.296,0.454c22.774-0.016,39.941-4.486,53.007-11.569 c13.066-7.092,22.271-16.811,28.928-28.315c4.426-7.659,7.671-16.13,9.926-25.005c3.002-11.829,4.235-24.34,4.235-36.412 c0-8.146-0.568-16.105-1.469-23.456l19.723-2.433c1.006,8.105,1.615,16.834,1.615,25.889c-0.008,15.066-1.696,31.049-6.256,46.472 c-2.149,7.221-4.973,14.312-8.526,21.119c19.626-11.188,34.278-24.786,44.841-39.812c15.286-21.8,22.116-46.838,22.133-72.572 C467.414,326.427,455.585,291.856,435.805,263.688z"/> </g> </g>

</svg>
