<!DOCTYPE svg PUBLIC "-//W3C//DTD SVG 1.1//EN" "http://www.w3.org/Graphics/SVG/1.1/DTD/svg11.dtd">

<!-- Uploaded to: SVG Repo, www.svgrepo.com, Transformed by: SVG Repo Mixer Tools -->
<svg version="1.1" id="Icons" xmlns="http://www.w3.org/2000/svg" xmlns:xlink="http://www.w3.org/1999/xlink" viewBox="0 0 32 32" xml:space="preserve" width="20" height="20" fill="green">

<g id="SVGRepo_bgCarrier" stroke-width="0"/>

<g id="SVGRepo_tracerCarrier" stroke-linecap="round" stroke-linejoin="round"/>

<g id="SVGRepo_iconCarrier"> <style type="text/css"> .st0{fill:none;stroke:green;stroke-width:2;stroke-linecap:round;stroke-linejoin:round;stroke-miterlimit:10;} </style> <g> <path d="M26.8,11.4c-0.1-0.1-0.1-0.2-0.2-0.3l-9.7-9.7c-0.1-0.1-0.2-0.2-0.3-0.2C16.4,1,16.3,1,16.2,1C11.7,1,7.7,3.5,5.9,7.6 C3.5,9.6,2,13.4,2,17.5c0,3.5,1.1,6.8,3,9V29c0,1.7,1.3,3,3,3h16c1.7,0,3-1.3,3-3v-1.5V27V14v-1.5V12c0-0.1,0-0.3-0.1-0.4 L26.8,11.4z M10,25c-2.2,0-4-3.4-4-7.5S7.8,10,10,10c2.2,0,4,3.4,4,7.5S12.2,25,10,25z"/> <path d="M26.8,7.6c1.2-1.2,1.2-3.1,0-4.2l-2.2-2.2c-1.2-1.2-3.1-1.2-4.2,0L20,1.6L26.4,8L26.8,7.6z"/> </g> </g>

</svg>
