<svg fill="red" height="20" width="20" xmlns="http://www.w3.org/2000/svg" viewBox="0 0 512 512" xml:space="preserve"><path d="M489.739 211.478h-17.008c-1.492-18.064-10.109-34.659-24.161-46.076 6.94-18.44 5.511-39.358-4.609-56.881-10.12-17.538-27.543-29.24-47.005-32.435-3.195-19.462-14.897-36.886-32.435-47.01s-38.472-11.549-56.924-4.581C295.098 9.239 276.25 0 256 0s-39.098 9.239-51.597 24.489c-18.445-6.951-39.392-5.539-56.924 4.587-17.538 10.125-29.244 27.549-32.441 47.01-19.462 3.196-36.885 14.897-47.005 32.435-10.12 17.522-11.549 38.44-4.604 56.881-14.051 11.417-22.67 28.012-24.163 46.076H22.261c-9.223 0-16.696 7.473-16.696 16.696 0 92.392 52.082 178.081 133.565 221.24v12.499c0 27.619 22.468 50.087 50.087 50.087h133.565c27.619 0 50.087-22.468 50.087-50.087v-12.499c81.484-43.158 133.565-128.848 133.565-221.24.001-9.223-7.472-16.696-16.695-16.696m-416.921.001c2.036-11.983 10.457-20.907 19.4-24.892a16.7 16.7 0 0 0 9.332-10.929 16.69 16.69 0 0 0-2.62-14.136c-7.767-10.69-8.544-24.94-1.983-36.304 6.565-11.364 19.223-17.755 32.441-16.441 5.005.479 9.984-1.244 13.544-4.799a16.69 16.69 0 0 0 4.799-13.544c-1.375-13.147 5.077-25.875 16.445-32.441 11.375-6.544 25.62-5.772 36.304 1.983a16.72 16.72 0 0 0 14.13 2.615 16.67 16.67 0 0 0 10.929-9.332c5.38-12.07 17.337-19.869 30.462-19.869s25.076 7.799 30.456 19.87a16.69 16.69 0 0 0 10.929 9.332 16.63 16.63 0 0 0 14.13-2.615c10.68-7.761 24.929-8.549 36.31-1.983 11.364 6.565 17.815 19.294 16.441 32.441a16.69 16.69 0 0 0 4.799 13.544 16.7 16.7 0 0 0 13.544 4.799c13.24-1.305 25.875 5.077 32.441 16.441 6.56 11.364 5.782 25.62-1.983 36.31a16.7 16.7 0 0 0-2.615 14.13 16.7 16.7 0 0 0 9.332 10.929c8.94 3.985 17.361 12.909 19.394 24.891z"/></svg>
