<svg fill="red" width="20" height="20" viewBox="0 0 50 50" xml:space="preserve" xmlns="http://www.w3.org/2000/svg"><g/><g/><path clip-rule="evenodd" d="m43.405 23.036 2.471.371c-.328 2.161-1.397 4.217-2.806 6.073-1.776 2.339-4.099 4.361-6.134 5.86-2.327 1.716-4.372 2.9-7.159 3.82l-.781-2.374c2.536-.84 4.34-1.891 6.465-3.459 1.887-1.391 4.027-3.247 5.626-5.353 1.173-1.543 2.056-3.222 2.318-4.938m-4.579-9.327c-.98 3.483-1.219 6.151-3.632 9.19-2.838 3.576-6.493 6.173-10.506 8.177-4.417 2.207-9.268 3.695-13.937 4.98l-.135 4.429c5.752 5.644 14.137 5.073 21.144 2.386 7.665-2.94 14.825-8.936 17.364-16.015 1.987-5.547.451-10.598-3.206-14.959-.802-.956-1.159-2.412-1.347-3.765-.136-.978-.203-1.984-.289-2.969-2.289.491-4.478 1.14-6.761 1.63.238 1.114.432 1.991.825 3.075.412 1.135.879 2.422.48 3.841m-9.279 6.357c-8.442 4.509-18.528 3.632-27.658 2.335L0 26.417c1.497 3.693 4.265 6.508 7.917 8.125 5.417-1.472 10.699-2.891 15.775-5.438 3.724-1.867 7.173-4.288 9.78-7.573 1.436-1.808 3.117-6.488 3.298-8.768-1.736 2.619-4.444 5.82-7.223 7.303" fill-rule="evenodd"/><g/><g/><g/><g/><g/><g/><g/><g/><g/></svg>
