<svg fill="black" height="20" width="20" xmlns="http://www.w3.org/2000/svg" viewBox="0 0 54.838 54.838" xml:space="preserve"><path d="m13.132 21.31.943-1.348c1.117-1.598 2.707-2.896 4.857-3.969 1.553-.774 3.323-1.301 5.159-1.698-.133-.143-.261-.278-.395-.423-2.628-2.827-5.607-6.031-8.739-7.65-1.782-.921-3.406-1.37-4.966-1.37-2.711 0-5.057 1.328-7.38 4.178-4.096 5.024-3.269 12.974 1.762 19.715 1.371-4.238 4.31-6.725 8.759-7.435m-4.929-9.695 3.426-2.294a1 1 0 1 1 1.112 1.662l-3.426 2.294a1 1 0 1 1-1.112-1.662m-3.978 6.676A1 1 0 1 1 5.292 16.6l3.487 2.2a1 1 0 1 1-1.068 1.691z"/><path d="M54.474 19.031c-1.218-4.653-3.431-6.638-7.401-6.638-2.582 0-5.921.822-10.356 1.982-1.453.38-3.448.617-5.561.867-3.833.454-8.178.969-11.332 2.542-1.839.917-3.198 2.019-4.112 3.325 3.582.012 7.609 1.157 11.134 2.188 1.975.577 3.838 1.122 5.187 1.321 5.907.872 9.688 1.521 12.391 3.187 2.225 1.372 3.492 3.377 3.87 6.042 5.116-4.129 7.514-9.72 6.18-14.816m-18.245 4.321a1 1 0 0 1-1.213-.727l-1-4a1 1 0 1 1 1.941-.485l1 4a1 1 0 0 1-.728 1.212m13.483-.23-3.053 2.771a.997.997 0 0 1-1.412-.069 1 1 0 0 1 .069-1.413l3.053-2.771a1 1 0 0 1 1.343 1.482"/><path d="M43.376 29.508c-2.375-1.464-5.979-2.077-11.633-2.911-1.487-.219-3.415-.783-5.457-1.38-3.688-1.079-7.922-2.313-11.421-2.099-5.423.327-8.337 3.102-9.168 8.734-.594 4.027 1.003 8.108 4.499 11.492 3.407 3.298 8.234 5.549 13.592 6.34 1.363.201 2.74.303 4.092.303 9.61 0 17.339-5.11 18.377-12.15.613-4.154-.275-6.722-2.881-8.329m-29.147 8.247a1 1 0 0 1-1.213-.727l-1-4a1 1 0 1 1 1.941-.485l1 4a1 1 0 0 1-.728 1.212m11.092-4.633a1 1 0 0 1 1.229-.7l3.976 1.092a1 1 0 0 1-.529 1.929l-3.976-1.092a1 1 0 0 1-.7-1.229m6.222 10.2-3.426 2.294a1 1 0 1 1-1.112-1.662l3.426-2.294a1 1 0 0 1 1.112 1.662"/></svg>
