<!DOCTYPE svg PUBLIC "-//W3C//DTD SVG 1.1//EN" "http://www.w3.org/Graphics/SVG/1.1/DTD/svg11.dtd">

<!-- Uploaded to: SVG Repo, www.svgrepo.com, Transformed by: SVG Repo Mixer Tools -->
<svg fill="orange" height="20" width="20" version="1.1" id="Capa_1" xmlns="http://www.w3.org/2000/svg" xmlns:xlink="http://www.w3.org/1999/xlink" viewBox="-8.34 -8.34 433.67 433.67" xml:space="preserve" stroke="orange" stroke-width="20.432558999999998">

<g id="SVGRepo_bgCarrier" stroke-width="0"/>

<g id="SVGRepo_tracerCarrier" stroke-linecap="round" stroke-linejoin="round" stroke="orange" stroke-width="1.667964"/>

<g id="SVGRepo_iconCarrier"> <path d="M416.912,207.196c-0.4-14.906-7.54-28.085-13.878-39.745c-3.652-6.721-7.103-13.067-9.097-19.207 c-2.123-6.541-3.131-13.953-4.198-21.8c-1.861-13.684-3.802-27.815-12.007-39.628c-0.367-0.636-0.799-1.238-1.303-1.785 c-8.793-11.487-21.644-17.677-34.093-23.653c-7.091-3.404-13.788-6.619-19.257-10.599c-5.359-3.9-10.412-9.224-15.762-14.86 c-9.817-10.344-19.97-21.039-34.398-25.724c-0.046-0.015-0.093-0.027-0.139-0.042c-0.069-0.021-0.138-0.042-0.207-0.062 c-4.979-1.574-10.325-2.346-16.332-2.346c-8.477,0-16.998,1.54-25.239,3.03c-7.93,1.434-15.42,2.787-22.512,2.787 c-7.093,0-14.582-1.354-22.511-2.787c-8.24-1.489-16.761-3.03-25.238-3.03c-6.146,0-11.602,0.802-16.68,2.451 c-0.074,0.024-0.145,0.054-0.219,0.078c-0.025,0.009-0.05,0.018-0.075,0.027c-14.269,4.734-24.353,15.346-34.101,25.619 c-5.35,5.637-10.402,10.96-15.762,14.861c-5.468,3.979-12.166,7.195-19.257,10.599C62.16,67.376,49.267,73.585,40.472,85.144 c-0.479,0.532-0.906,1.113-1.264,1.742c-8.164,11.799-10.101,25.901-11.958,39.558c-1.066,7.848-2.075,15.26-4.199,21.802 c-1.993,6.141-5.443,12.487-9.096,19.208C7.6,179.147,0.438,192.365,0.075,207.322c-0.098,0.816-0.104,1.645,0.003,2.472 c0.399,14.908,7.538,28.088,13.877,39.75c3.652,6.72,7.103,13.066,9.097,19.206c2.123,6.541,3.132,13.953,4.198,21.801 c1.862,13.688,3.803,27.825,12.017,39.64c0.36,0.62,0.781,1.207,1.271,1.742c8.793,11.504,21.653,17.7,34.113,23.68 c7.091,3.404,13.787,6.619,19.256,10.599c5.359,3.9,10.412,9.225,15.762,14.861c9.753,10.276,19.841,20.894,34.12,25.625 c0.017,0.006,0.034,0.012,0.05,0.018c0.076,0.025,0.148,0.055,0.224,0.08c5.078,1.649,10.533,2.45,16.679,2.45 c8.476,0,16.996-1.541,25.236-3.03c7.93-1.434,15.42-2.787,22.513-2.787c7.093,0,14.582,1.353,22.511,2.787 c8.241,1.49,16.763,3.03,25.24,3.03c6.116,0,11.547-0.795,16.603-2.428c0.013-0.004,0.027-0.008,0.04-0.012 c0.011-0.004,0.023-0.007,0.034-0.01c14.428-4.685,24.579-15.38,34.397-25.723c5.35-5.637,10.402-10.96,15.762-14.86 c5.469-3.979,12.166-7.194,19.258-10.598c12.464-5.983,25.329-12.18,34.124-23.692c0.494-0.538,0.925-1.136,1.294-1.776 c8.187-11.806,10.128-25.924,11.987-39.596c1.066-7.847,2.075-15.259,4.198-21.799c1.994-6.14,5.444-12.486,9.096-19.206 c6.357-11.695,13.521-24.916,13.883-39.877C417.014,208.852,417.02,208.023,416.912,207.196z M292.811,49.688 c5.733,6.041,11.662,12.287,18.501,17.264c6.94,5.051,14.784,8.815,22.369,12.457c8.973,4.307,17.541,8.42,23.566,14.116 c-9.565,19.705-22.29,37.372-37.908,52.575c-3.957,3.853-4.042,10.184-0.19,14.142c1.961,2.014,4.563,3.024,7.167,3.024 c2.514,0,5.03-0.942,6.975-2.834c13.556-13.197,25.136-28.069,34.609-44.38c0.809,4.171,1.41,8.582,2.023,13.086 c1.139,8.375,2.316,17.035,4.994,25.282c2.564,7.894,6.621,15.36,10.546,22.581c4.844,8.912,9.462,17.418,10.97,25.904 c-34.47,18.378-73.81,25.578-112.455,20.648c0.97-4.872,1.489-9.905,1.489-15.058c0-4.329-0.377-8.57-1.068-12.706 c9.243-4.829,18.147-10.345,26.54-16.476c4.459-3.258,5.434-9.515,2.176-13.975c-3.259-4.458-9.515-5.43-13.975-2.176 c-6.599,4.822-13.551,9.219-20.747,13.159c-3.934-8.511-9.368-16.188-15.975-22.684c17.519-35.269,24.64-74.762,20.67-113.787 C286.338,42.872,289.54,46.241,292.811,49.688z M208.496,265.466c-31.414,0-56.971-25.557-56.971-56.971 s25.557-56.971,56.971-56.971s56.971,25.557,56.971,56.971S239.91,265.466,208.496,265.466z M83.303,79.411 c7.586-3.642,15.431-7.407,22.371-12.459c6.838-4.977,12.766-11.223,18.499-17.264c6.907-7.278,13.504-14.224,20.906-18.23 c6.134,5.903,11.88,12.208,17.119,18.817c1.975,2.49,4.895,3.788,7.844,3.788c2.176,0,4.367-0.707,6.205-2.163 c4.328-3.431,5.056-9.721,1.625-14.049c-2.548-3.214-5.208-6.36-7.958-9.436c4.017,0.514,8.193,1.261,12.508,2.041 c8.447,1.527,17.183,3.106,26.068,3.106c8.885,0,17.621-1.579,26.069-3.106c7.713-1.394,14.998-2.711,21.682-2.711 c1.787,0,3.443,0.111,5.017,0.304c6.823,38.466,1.508,78.109-15.13,113.34c-7.987-4.497-16.845-7.618-26.263-9.019 c-4.101-24.384-12.381-47.564-24.691-69.003c-2.749-4.789-8.862-6.442-13.651-3.692c-4.79,2.75-6.442,8.862-3.692,13.651 c10.512,18.307,17.773,38.024,21.67,58.741c-9.472,1.108-18.42,3.941-26.529,8.179c-28.095-27.523-63.405-46.485-101.694-54.781 C75.056,83.371,79.136,81.411,83.303,79.411z M31.527,177.004c3.925-7.222,7.983-14.688,10.546-22.583 c2.678-8.246,3.855-16.907,4.994-25.283c1.334-9.81,2.609-19.177,6.114-26.584c38.699,5.397,74.766,22.706,103.133,49.424 c-6.814,6.296-12.484,13.807-16.677,22.183c-38.976-5.762-78.754-0.317-114.653,15.539 C26.897,185.534,29.183,181.317,31.527,177.004z M124.175,367.304c-5.733-6.041-11.661-12.287-18.5-17.265 c-6.94-5.05-14.784-8.815-22.369-12.457c-8.973-4.306-17.54-8.419-23.565-14.116c11.455-23.618,27.338-44.159,47.296-61.113 c4.209-3.575,4.723-9.887,1.146-14.096c-3.574-4.208-9.885-4.722-14.096-1.146c-18.105,15.38-33.175,33.421-45.002,53.809 c-0.807-4.165-1.407-8.568-2.019-13.065c-1.139-8.375-2.316-17.035-4.994-25.281c-2.563-7.895-6.621-15.361-10.546-22.582 c-4.844-8.912-9.462-17.419-10.97-25.906c34.471-18.378,73.812-25.578,112.456-20.649c-0.971,4.872-1.489,9.905-1.489,15.058 c0,4.331,0.378,8.574,1.069,12.712c-4.747,2.48-9.416,5.129-13.932,7.947c-4.685,2.925-6.112,9.093-3.188,13.778 c1.896,3.038,5.157,4.706,8.493,4.706c1.808,0,3.639-0.49,5.285-1.518c3.048-1.902,6.169-3.727,9.342-5.464 c3.934,8.516,9.37,16.197,15.98,22.695c-17.52,35.271-24.641,74.767-20.669,113.794 C130.652,374.124,127.449,370.753,124.175,367.304z M208.491,383.428c-8.886,0-17.622,1.579-26.07,3.107 c-7.712,1.393-14.997,2.711-21.68,2.711c-1.784,0-3.436-0.111-5.008-0.303c-6.823-38.466-1.508-78.109,15.13-113.34 c7.987,4.497,16.845,7.618,26.261,9.019c6.548,38.723,23.933,74.768,49.974,103.959c-4.027-0.515-8.212-1.263-12.538-2.045 C226.112,385.007,217.377,383.428,208.491,383.428z M333.68,337.584c-7.586,3.642-15.43,7.406-22.37,12.457 c-6.839,4.978-12.768,11.224-18.501,17.264c-6.904,7.275-13.498,14.219-20.897,18.226c-28.147-27.111-47.162-62.314-54.415-100.608 c9.47-1.109,18.416-3.941,26.523-8.178c28.096,27.523,63.406,46.485,101.694,54.781C341.933,333.622,337.851,335.582,333.68,337.584 z M385.462,239.995c-3.925,7.22-7.982,14.686-10.546,22.58c-2.678,8.245-3.855,16.905-4.995,25.28 c-1.333,9.809-2.608,19.175-6.113,26.582c-38.698-5.397-74.764-22.706-103.131-49.424c6.815-6.297,12.485-13.808,16.679-22.185 c10.109,1.494,20.271,2.248,30.407,2.248c28.948,0,57.664-6.058,84.257-17.806C390.103,231.445,387.812,235.672,385.462,239.995z"/> </g>

</svg>
