<!DOCTYPE svg PUBLIC "-//W3C//DTD SVG 1.1//EN" "http://www.w3.org/Graphics/SVG/1.1/DTD/svg11.dtd">

<!-- Uploaded to: SVG Repo, www.svgrepo.com, Transformed by: SVG Repo Mixer Tools -->
<svg height="20" width="20" version="1.1" id="_x32_" xmlns="http://www.w3.org/2000/svg" xmlns:xlink="http://www.w3.org/1999/xlink" viewBox="0 0 512 512" xml:space="preserve" fill="red" style="--darkreader-inline-fill: red; --darkreader-inline-stroke: red;" stroke="red" data-darkreader-inline-fill="" data-darkreader-inline-stroke="" stroke-width="0.00512">

<g id="SVGRepo_bgCarrier" stroke-width="0"/>

<g id="SVGRepo_tracerCarrier" stroke-linecap="round" stroke-linejoin="round"/>

<g id="SVGRepo_iconCarrier"> <style type="text/css"> .st0{fill:red;} </style>

<style class="darkreader darkreader--sync" media="screen"/> <g> <path class="st0" d="M375.08,400.474v-10.389c0-15.282-12.389-27.655-27.656-27.655H46.83c-17.168,0-31.1,13.915-31.1,31.116 v59.113c0,17.201,13.932,31.116,31.1,31.116H512v-83.301H375.08z"/> <path class="st0" d="M56.326,192.868c-5.728,0-10.372,4.636-10.372,10.372v137.67h34.993V203.24 c0-5.736-4.644-10.372-10.372-10.372H56.326z"/> <path class="st0" d="M121.668,192.868c-5.745,0-10.389,4.636-10.389,10.372v137.67h35.01V203.24c0-5.736-4.644-10.372-10.38-10.372 H121.668z"/> <path class="st0" d="M186.993,192.868c-5.728,0-10.372,4.636-10.372,10.372v137.67h35.001V203.24 c0-5.736-4.644-10.372-10.372-10.372H186.993z"/> <path class="st0" d="M252.326,192.868c-5.719,0-10.364,4.636-10.364,10.372v137.67h34.993V203.24 c0-5.736-4.644-10.372-10.364-10.372H252.326z"/> <path class="st0" d="M317.668,192.868c-5.728,0-10.372,4.636-10.372,10.372v137.67h35.001V203.24 c0-5.736-4.644-10.372-10.372-10.372H317.668z"/> <path class="st0" d="M99.606,170.573c57.913,0,256.706,0,256.706,0c0-64.433-23.346-116.66-116.685-116.66 c-37.344,0-109.673,0-142.34,0c-56.003,0-77.014-25.688-77.014-25.688C-31.052,114.561,22.3,170.573,99.606,170.573z"/> </g> </g>

</svg>
