<!DOCTYPE svg PUBLIC "-//W3C//DTD SVG 1.1//EN" "http://www.w3.org/Graphics/SVG/1.1/DTD/svg11.dtd">

<!-- Uploaded to: SVG Repo, www.svgrepo.com, Transformed by: SVG Repo Mixer Tools -->
<svg fill="red" height="20" width="20" version="1.1" id="Layer_1" xmlns="http://www.w3.org/2000/svg" xmlns:xlink="http://www.w3.org/1999/xlink" viewBox="0 0 511.998 511.998" xml:space="preserve" stroke="red" stroke-width="4.095984">

<g id="SVGRepo_redgCarrier" stroke-width="0"/>

<g id="SVGRepo_tracerCarrier" stroke-linecap="round" stroke-linejoin="round"/>

<g id="SVGRepo_iconCarrier"> <g> <g> <g> <path d="M290.132,76.797h8.533c4.719,0,8.533-3.814,8.533-8.533s-3.814-8.533-8.533-8.533h-8.533 c-4.719,0-8.533,3.814-8.533,8.533S285.413,76.797,290.132,76.797z"/> <path d="M221.865,76.797h8.533c4.719,0,8.533-3.814,8.533-8.533s-3.814-8.533-8.533-8.533h-8.533 c-4.719,0-8.533,3.814-8.533,8.533S217.146,76.797,221.865,76.797z"/> <path d="M264.532,76.797c4.719,0,8.533-3.814,8.533-8.533s-3.814-8.533-8.533-8.533h-8.533c-4.719,0-8.533,3.814-8.533,8.533 s3.814,8.533,8.533,8.533H264.532z"/> <path d="M187.732,76.797h8.533c4.719,0,8.533-3.814,8.533-8.533s-3.814-8.533-8.533-8.533h-8.533 c-4.719,0-8.533,3.814-8.533,8.533S183.013,76.797,187.732,76.797z"/> <path d="M324.265,76.797h8.533c4.719,0,8.533-3.814,8.533-8.533s-3.814-8.533-8.533-8.533h-8.533 c-4.719,0-8.533,3.814-8.533,8.533S319.546,76.797,324.265,76.797z"/> <path d="M257.248,26.481l8.09,2.688c0.896,0.299,1.801,0.435,2.697,0.435c3.576,0,6.904-2.253,8.098-5.837 c1.485-4.471-0.93-9.301-5.41-10.795l-8.09-2.688c-4.471-1.468-9.301,0.93-10.795,5.402 C250.354,20.157,252.777,24.987,257.248,26.481z"/> <path d="M289.623,37.264l8.09,2.697c0.896,0.307,1.809,0.444,2.705,0.444c3.576,0,6.895-2.253,8.09-5.828 c1.493-4.471-0.922-9.301-5.393-10.795l-8.09-2.697c-4.471-1.493-9.301,0.922-10.795,5.385 C282.737,30.941,285.152,35.771,289.623,37.264z"/> <path d="M322.007,48.056l8.09,2.697c0.896,0.307,1.809,0.444,2.705,0.444c3.576,0,6.895-2.253,8.09-5.828 c1.493-4.471-0.922-9.301-5.393-10.795l-8.09-2.697c-4.48-1.493-9.301,0.922-10.795,5.385 C315.121,41.732,317.536,46.562,322.007,48.056z"/> <path d="M238.348,2.181l-5.257-1.749c-4.463-1.468-9.31,0.93-10.795,5.41c-1.485,4.463,0.939,9.301,5.41,10.786l5.257,1.749 c0.896,0.299,1.801,0.435,2.697,0.435c3.575,0,6.903-2.253,8.098-5.837C245.243,8.504,242.819,3.674,238.348,2.181z"/> <path d="M330.098,85.773l-8.09,2.697c-4.48,1.493-6.886,6.332-5.393,10.795c1.195,3.576,4.514,5.837,8.09,5.837 c0.896,0,1.809-0.145,2.705-0.444l8.09-2.705c4.471-1.485,6.878-6.323,5.393-10.786C339.4,86.694,334.553,84.271,330.098,85.773z "/> <path d="M276.132,112.764c-1.493-4.471-6.323-6.869-10.795-5.41l-8.09,2.697c-4.471,1.485-6.895,6.323-5.41,10.786 c1.195,3.584,4.531,5.845,8.107,5.845c0.888,0,1.792-0.145,2.688-0.435l8.09-2.688 C275.202,122.065,277.617,117.227,276.132,112.764z"/> <path d="M297.715,96.564l-8.09,2.697c-4.48,1.493-6.886,6.332-5.393,10.795c1.195,3.576,4.514,5.837,8.09,5.837 c0.896,0,1.809-0.145,2.705-0.444l8.09-2.705c4.471-1.485,6.878-6.323,5.393-10.786 C307.017,97.486,302.178,95.062,297.715,96.564z"/> <path d="M232.965,118.147l-5.257,1.749c-4.48,1.493-6.895,6.323-5.41,10.795c1.195,3.584,4.523,5.837,8.098,5.837 c0.896,0,1.801-0.137,2.697-0.427l5.257-1.758c4.471-1.485,6.886-6.323,5.41-10.786 C242.266,119.078,237.437,116.688,232.965,118.147z"/> <path d="M167.765,307.198H71.168C31.923,307.198,0,339.121,0,378.366v133.632h238.933V378.366 C238.933,339.121,207.01,307.198,167.765,307.198z"/> <path d="M375.465,409.598h-102.4v25.6h136.533v-153.6H273.065v25.6h59.733c4.719,0,8.533,3.814,8.533,8.533 s-3.814,8.533-8.533,8.533h-59.733v25.6h85.333c4.719,0,8.533,3.814,8.533,8.533s-3.814,8.533-8.533,8.533h-85.333v25.6h102.4 c4.719,0,8.533,3.814,8.533,8.533C383.998,405.783,380.184,409.598,375.465,409.598z"/> <path d="M503.465,196.264h-8.969c-4.326-47.77-44.553-85.333-93.431-85.333v-8.533h17.067c4.719,0,8.533-3.814,8.533-8.533v-51.2 c0-4.719-3.814-8.533-8.533-8.533h-51.2c-4.719,0-8.533,3.814-8.533,8.533v51.2c0,4.719,3.814,8.533,8.533,8.533h17.067v8.533 c-48.879,0-89.105,37.564-93.431,85.333h-8.969c-4.719,0-8.533,3.814-8.533,8.533v59.733h145.067 c4.719,0,8.533,3.814,8.533,8.533v170.667c0,4.719-3.814,8.533-8.533,8.533H273.065v51.2c0,4.719,3.814,8.533,8.533,8.533 h221.867c4.719,0,8.533-3.814,8.533-8.533V204.797C511.998,200.079,508.184,196.264,503.465,196.264z M375.465,85.331v-8.533 h8.533c4.719,0,8.533-3.814,8.533-8.533s-3.814-8.533-8.533-8.533h-8.533v-8.533h34.133v34.133H375.465z M307.676,196.264 c4.258-38.349,36.855-68.267,76.322-68.267h17.067c39.467,0,72.064,29.918,76.322,68.267H307.676z"/> </g> </g> </g> </g>

</svg>
