<!DOCTYPE svg PUBLIC "-//W3C//DTD SVG 1.1//EN" "http://www.w3.org/Graphics/SVG/1.1/DTD/svg11.dtd">

<!-- Uploaded to: SVG Repo, www.svgrepo.com, Transformed by: SVG Repo Mixer Tools -->
<svg fill="red" height="20" width="20" version="1.1" id="Layer_1" xmlns="http://www.w3.org/2000/svg" xmlns:xlink="http://www.w3.org/1999/xlink" viewBox="0 0 511.999 511.999" xml:space="preserve" stroke="red" stroke-width="0.0051199900000000005">

<g id="SVGRepo_bgCarrier" stroke-width="0"/>

<g id="SVGRepo_tracerCarrier" stroke-linecap="round" stroke-linejoin="round"/>

<g id="SVGRepo_iconCarrier"> <g> <g> <path d="M301.305,251.945h-90.61c-5.236,0-9.495,4.259-9.495,9.495v114.97c-0.001,5.235,4.259,9.494,9.495,9.494h90.61 c5.236,0,9.495-4.259,9.495-9.495V261.44C310.8,256.204,306.541,251.945,301.305,251.945z M290.059,362.516H221.94v-30.417h68.118 V362.516z M290.059,305.751H221.94v-30.417h68.118V305.751z"/> </g> </g> <g> <g> <path d="M389.835,481.582V156.265h-30.417h-36.501H189.082h-36.501h-30.417v325.316H98.308v30.417h23.855h267.672h23.855v-30.417 H389.835z M341.216,376.41c0,22.008-17.905,39.912-39.912,39.912h-90.61c-22.008,0-39.912-17.905-39.912-39.912V261.44 c0-22.008,17.905-39.912,39.912-39.912h90.61c22.008,0,39.912,17.905,39.912,39.912V376.41z"/> </g> </g> <g> <g> <polygon points="240.743,0 240.952,67.239 189.082,67.239 189.082,125.848 219.499,125.848 292.5,125.848 322.917,125.848 322.917,67.239 271.37,67.239 271.256,30.417 344.209,30.417 344.209,49.428 374.627,49.428 374.627,0 "/> </g> </g> </g>

</svg>
