<!DOCTYPE svg PUBLIC "-//W3C//DTD SVG 1.1//EN" "http://www.w3.org/Graphics/SVG/1.1/DTD/svg11.dtd">

<!-- Uploaded to: SVG Repo, www.svgrepo.com, Transformed by: SVG Repo Mixer Tools -->
<svg version="1.1" id="Uploaded to svgrepo.com" xmlns="http://www.w3.org/2000/svg" xmlns:xlink="http://www.w3.org/1999/xlink" width="20" height="20" viewBox="0 0 32.00 32.00" xml:space="preserve" fill="orange" stroke="orange" stroke-width="0.00032">

<g id="SVGRepo_orangegCarrier" stroke-width="0"/>

<g id="SVGRepo_tracerCarrier" stroke-linecap="round" stroke-linejoin="round"/>

<g id="SVGRepo_iconCarrier"> <style type="text/css"> .stone_een{fill:orange;} .st0{fill:orange;} </style> <path class="stone_een" d="M14.94,5.562c-1.056-1.056-1.317-2.662-0.65-3.996l0.368-0.736c0.371-0.74,1.273-1.042,2.012-0.671 c0.359,0.179,0.626,0.487,0.753,0.867c0.126,0.38,0.098,0.787-0.082,1.146l-0.368,0.736c-0.089,0.177-0.054,0.391,0.086,0.532 C18.003,4.383,18.307,5.765,17.886,7h-3.232c0.058-0.199,0.119-0.399,0.211-0.584l0.161-0.322 C15.115,5.916,15.081,5.702,14.94,5.562z M23.81,28l-0.673-14.143C23.06,12.258,21.741,11,20.139,11H19V9c0-0.552-0.448-1-1-1h-0.5 h-3H14c-0.552,0-1,0.448-1,1v2h-1.139c-1.601,0-2.92,1.258-2.997,2.857L8.19,28H23.81z M8.143,29L8.05,30.952 C8.023,31.523,8.478,32,9.049,32h13.902c0.571,0,1.026-0.477,0.999-1.048L23.857,29H8.143z M26.196,2.839l-3-0.6 c-0.067-0.013-0.133-0.02-0.198-0.02c-0.538,0-0.998,0.437-0.998,1v2.56c0,0.563,0.459,1,0.998,1c0.065,0,0.131-0.006,0.198-0.02 l3-0.6C26.664,6.067,27,5.657,27,5.18V3.82C27,3.343,26.664,2.933,26.196,2.839z"/> </g>

</svg>
