<svg fill="red" xmlns="http://www.w3.org/2000/svg" width="20" height="20" viewBox="0 0 968.075 968.075" xml:space="preserve"><path d="M192.474 436.9c-36.8 36-59.6 86.3-59.6 141.899 0 55.5 22.8 105.801 59.6 141.801 8.101 8 21.2 8 29.301 0 36.8-36 59.6-86.301 59.6-141.801 0-55.6-22.9-105.8-59.6-141.8-8.101-8.099-21.2-8.099-29.301-.099m197.301 250.201c-55.5 0-105.801 22.8-141.801 59.6-8 8.1-8 21.2 0 29.3 36.101 36.8 86.301 59.601 141.801 59.601 55.6 0 105.8-22.801 141.899-59.601 8-8.2 8-21.2 0-29.3-36.199-36.801-86.399-59.6-141.899-59.6m-53.8-393.701c-36.801 36-59.601 86.3-59.601 141.899 0 55.5 22.8 105.801 59.601 141.801 8.1 8 21.199 8 29.3 0 36.8-36 59.6-86.301 59.6-141.801 0-55.6-22.899-105.8-59.6-141.8-8.101-8.099-21.2-8.099-29.3-.099m339.1 309.8c-36.1-36.8-86.3-59.6-141.8-59.6s-105.8 22.8-141.8 59.6c-8 8.1-8 21.2 0 29.3 36.1 36.8 86.3 59.601 141.8 59.601 55.6 0 105.8-22.801 141.899-59.601 7.901-8.1 7.901-21.1-.099-29.3M508.775 150c-8.101-8-21.2-8-29.3 0-36.801 36-59.601 86.301-59.601 141.9 0 55.5 22.8 105.8 59.601 141.8 8.1 8 21.199 8 29.3 0 36.8-36 59.6-86.3 59.6-141.8 0-55.7-22.8-105.9-59.6-141.9m167.899 250.101c-55.5 0-105.8 22.8-141.8 59.6-8 8.1-8 21.2 0 29.3 36.101 36.8 86.3 59.601 141.8 59.601 55.601 0 105.801-22.801 141.9-59.601 8-8.2 8-21.2 0-29.3-36.099-36.701-86.299-59.6-141.9-59.6M652.275 6.5c-8.101-8-21.2-8-29.3 0-36.801 36-59.601 86.301-59.601 141.9 0 55.5 22.8 105.8 59.601 141.8 8.1 8 21.199 8 29.3 0 36.8-36 59.6-86.3 59.6-141.8 0-55.599-22.9-105.9-59.6-141.9m167.899 250.101c-55.5 0-105.8 22.8-141.8 59.6-8 8.101-8 21.2 0 29.3 36.101 36.801 86.3 59.601 141.8 59.601 55.601 0 105.801-22.8 141.9-59.601 8-8.199 8-21.199 0-29.3-36.099-36.701-86.299-59.501-141.9-59.6m-18.599-194.8c-39.3 39.3-58.6 90.899-58.1 142.5.1 11.399 9.3 20.6 20.699 20.699 51.5.5 103.2-18.8 142.5-58.1 39.301-39.3 58.601-91 58.101-142.5-.101-11.4-9.3-20.6-20.7-20.7-51.5-.5-103.2 18.8-142.5 58.101M21.474 958.8c11.7 11.7 30.7 11.7 42.4 0l137.7-137.699c11.7-11.7 11.7-30.7 0-42.4l-12.7-12.7c-11.7-11.7-30.7-11.7-42.4 0L8.775 903.601c-11.7 11.699-11.7 30.699 0 42.399z"/></svg>
