<?xml version="1.0" standalone="no"?>
<svg version="1.0" xmlns="http://www.w3.org/2000/svg"
 width="20" height="20" viewBox="0 0 844.000000 844.000000"
 preserveAspectRatio="xMidYMid meet">

<g transform="translate(0.000000,844.000000) scale(0.100000,-0.100000)"
fill="red" stroke="none">
<path d="M7905 7816 c-174 -40 -299 -112 -815 -467 -536 -369 -953 -595 -1835
-994 -1036 -470 -1766 -853 -2345 -1233 -721 -472 -1051 -843 -1178 -1326 -23
-89 -26 -120 -26 -261 0 -162 12 -240 51 -319 8 -15 11 -32 6 -36 -4 -4 -78
-21 -163 -36 -152 -28 -163 -28 -540 -29 -371 -1 -386 -2 -425 -22 -51 -27
-100 -78 -119 -125 -41 -96 -4 -221 82 -278 87 -58 304 -107 573 -131 74 -6
135 -12 136 -13 5 -4 -239 -170 -365 -248 -168 -106 -346 -203 -512 -279 -197
-90 -252 -132 -296 -224 -29 -61 -33 -166 -7 -241 22 -65 121 -165 198 -200
48 -22 67 -25 128 -22 41 3 97 14 129 27 137 53 406 239 1011 699 170 129 311
231 314 228 10 -10 -66 -333 -127 -534 -64 -212 -96 -304 -165 -473 -55 -132
-58 -180 -17 -260 35 -70 87 -107 173 -121 48 -8 75 -8 107 1 47 13 115 68
137 112 8 15 66 175 129 356 129 373 181 510 267 705 l60 136 72 -54 c135
-102 331 -185 522 -220 112 -20 361 -15 475 11 316 71 648 242 1113 572 857
610 1622 1385 2357 2388 373 509 718 1080 1036 1716 194 388 265 563 303 747
16 77 14 201 -5 255 -21 63 -92 140 -159 173 -67 32 -188 41 -280 20z"/>
</g>
</svg>
