<svg fill="orange" width="20" height="20" viewBox="0 0 50 50" xml:space="preserve" xmlns="http://www.w3.org/2000/svg"><path clip-rule="evenodd" d="M8.962 18.405c-1.91 3.132-1.424 8.599-.525 11.866l-2.413.658c-1.1-4.002-1.514-10.037.8-13.828zm33.32 1.929c-.346-3.371-1.876-8.642-4.79-10.869l1.52-1.99c3.531 2.694 5.332 8.469 5.757 12.598zM27.36 18.432c2.853 3.102 2.808 5.526 1.697 9.431-.732 2.579-1.475 5.198-.083 8.454 2.023 4.729 7.067 6.773 11.737 4.774 5.325-2.279 8.062-8.7 8.94-14.104 1.085-6.673-.363-14.643-4.309-20.21-10.118-14.275-27.94.812-17.982 11.655m-9.937 30.616c5.077.17 9.038-3.563 9.209-8.703.118-3.54-1.524-5.711-3.141-7.85-2.45-3.236-3.37-5.479-1.835-9.405C27.007 9.376 4.928 1.774.671 18.745-.989 25.364.55 33.316 3.979 39.142c2.777 4.72 7.655 9.712 13.444 9.906" fill-rule="evenodd"/></svg>
