<?xml version="1.0" encoding="iso-8859-1"?>
<!DOCTYPE svg PUBLIC "-//W3C//DTD SVG 1.1//EN" "http://www.w3.org/Graphics/SVG/1.1/DTD/svg11.dtd">
<svg fill="black" version="1.1" id="Capa_1" xmlns="http://www.w3.org/2000/svg" xmlns:xlink="http://www.w3.org/1999/xlink"
	 width="20" height="20" viewBox="0 0 588.82 588.82"
	 xml:space="preserve">
<g>
	<g id="Layer_1_47_">
		<path d="M529.952,44.206c-65.024-61.2-167.024-58.65-228.225,6.375c-52.275,54.825-118.575,201.45-98.175,281.775l-90.525,95.625
			c-2.55-2.55-5.1-6.375-7.65-8.925c-22.95-21.675-59.925-20.4-81.6,2.55c-21.675,22.95-20.4,59.925,2.55,81.601
			c16.575,15.3,38.25,19.125,58.65,12.75c-5.1,20.399,0,42.074,15.3,57.375c22.95,21.675,59.925,20.399,81.6-2.551
			c21.675-22.949,20.4-59.925-2.55-81.6c-2.55-2.55-5.1-5.1-8.925-6.375l90.525-95.625c81.6,15.3,224.399-59.925,275.399-114.75
			C597.527,207.406,594.978,105.406,529.952,44.206z"/>
	</g>
</g>
</svg>
