<!DOCTYPE svg PUBLIC "-//W3C//DTD SVG 1.1//EN" "http://www.w3.org/Graphics/SVG/1.1/DTD/svg11.dtd">

<!-- Uploaded to: SVG Repo, www.svgrepo.com, Transformed by: SVG Repo Mixer Tools -->
<svg fill="red" version="1.1" id="Layer_1" xmlns="http://www.w3.org/2000/svg" xmlns:xlink="http://www.w3.org/1999/xlink" viewBox="0 0 512 512" xml:space="preserve" width="20" height="20" stroke="red" stroke-width="0.00512">

<g id="SVGRepo_redgCarrier" stroke-width="0"/>

<g id="SVGRepo_tracerCarrier" stroke-linecap="round" stroke-linejoin="round"/>

<g id="SVGRepo_iconCarrier"> <g> <g> <rect x="51.612" y="298.47" width="78.305" height="82.286"/> </g> </g> <g> <g> <rect x="382.083" y="298.47" width="78.305" height="82.286"/> </g> </g> <g> <g> <rect x="271.926" y="184.331" width="78.305" height="82.286"/> </g> </g> <g> <g> <rect x="161.769" y="184.331" width="78.305" height="82.286"/> </g> </g> <g> <g> <rect x="161.769" y="298.47" width="78.305" height="82.286"/> </g> </g> <g> <g> <rect x="271.926" y="298.47" width="78.305" height="82.286"/> </g> </g> <g> <g> <path d="M303.779,46.305c0-6.859,1.365-9.59,3.628-14.114c2.95-5.9,6.99-13.981,6.99-28.358h-31.853 c0,6.859-1.365,9.589-3.628,14.114c-2.95,5.9-6.99,13.981-6.99,28.358s4.04,22.458,6.99,28.358 c2.262,4.524,3.628,7.255,3.628,14.114c0,6.857-1.365,9.587-3.627,14.11c-2.951,5.9-6.991,13.98-6.991,28.356h31.853 c0-6.857,1.365-9.587,3.627-14.11c2.951-5.9,6.991-13.98,6.991-28.356c0-14.377-4.04-22.458-6.99-28.358 C305.145,55.894,303.779,53.164,303.779,46.305z"/> </g> </g> <g> <g> <path d="M229.456,46.305c0-6.859,1.365-9.59,3.628-14.114c2.95-5.9,6.99-13.981,6.99-28.358h-31.853 c0,6.859-1.365,9.589-3.628,14.114c-2.95,5.9-6.99,13.981-6.99,28.358s4.04,22.458,6.99,28.358 c2.262,4.524,3.628,7.255,3.628,14.114c0,6.857-1.365,9.587-3.627,14.11c-2.951,5.9-6.991,13.98-6.991,28.356h31.853 c0-6.857,1.365-9.587,3.627-14.11c2.951-5.9,6.991-13.98,6.991-28.356c0-14.377-4.04-22.458-6.99-28.358 C230.823,55.894,229.456,53.164,229.456,46.305z"/> </g> </g> <g> <g> <polygon points="0,412.609 32.211,508.167 479.789,508.167 512,412.609 "/> </g> </g> </g>

</svg>
