<!DOCTYPE svg PUBLIC "-//W3C//DTD SVG 1.1//EN" "http://www.w3.org/Graphics/SVG/1.1/DTD/svg11.dtd">

<!-- Uploaded to: SVG Repo, www.svgrepo.com, Transformed by: SVG Repo Mixer Tools -->
<svg height="20" width="20" version="1.1" id="_x32_" xmlns="http://www.w3.org/2000/svg" xmlns:xlink="http://www.w3.org/1999/xlink" viewBox="0 0 512 512" xml:space="preserve" fill="green" style="--darkreader-inline-fill: green; --darkreader-inline-stroke: green;" stroke="green" data-darkreader-inline-fill="" data-darkreader-inline-stroke="" stroke-width="0.00512">

<g id="SVGRepo_bgCarrier" stroke-width="0"/>

<g id="SVGRepo_tracerCarrier" stroke-linecap="round" stroke-linejoin="round"/>

<g id="SVGRepo_iconCarrier"> <style type="text/css"> .st0{fill:green;} </style>

<style class="darkreader darkreader--sync" media="screen"/> <g> <path class="st0" d="M494.663,98.88c-5.918-24.974-14.426-46.55-24.358-62.942c-6.606-10.94-13.835-19.528-21.064-25.446 c-4.126-3.382-8.236-5.885-12.259-7.605C432.368,0.928,427.898,0,423.307,0c-3.878,0-7.66,0.656-11.523,2.047 c-3.854,1.376-7.789,3.487-11.755,6.397c-7.957,5.79-16.01,14.874-23.311,26.821c-4.87,7.965-9.428,17.178-13.499,27.422 c-5.429,13.666-9.996,29.18-13.426,46.037c-4.582,22.495-7.141,47.373-7.133,73.538c-0.008,30.036,3.374,58.392,9.308,83.374 c5.902,24.982,14.41,46.558,24.343,62.935c6.605,10.939,13.834,19.544,21.055,25.446c4.134,3.383,8.244,5.902,12.275,7.613 c4.606,1.952,9.068,2.879,13.666,2.895c3.879,0,7.653-0.672,11.524-2.047c3.854-1.391,7.788-3.487,11.772-6.397 c7.948-5.806,15.993-14.874,23.302-26.838c4.87-7.949,9.419-17.161,13.498-27.412c5.422-13.675,9.996-29.188,13.419-46.046 c4.582-22.487,7.133-47.365,7.133-73.522C503.971,152.218,500.588,123.854,494.663,98.88z M448.961,197.232 c-1.095,4.606-2.687,8.772-4.838,12.355c-1.455,2.391-3.166,4.534-5.309,6.301c-1.232,1.008-2.608,1.888-4.158,2.544 c-1.752,0.744-3.727,1.192-5.75,1.192c-1.703,0-3.383-0.32-4.918-0.864c-1.536-0.559-2.927-1.328-4.174-2.239 c-2.495-1.839-4.43-4.175-6.03-6.781c-1.071-1.752-1.999-3.639-2.791-5.654c-1.064-2.679-1.911-5.573-2.534-8.66 c-0.84-4.11-1.288-8.533-1.288-13.162c0.008-5.326,0.584-10.38,1.688-14.986c1.088-4.606,2.671-8.764,4.83-12.355 c1.456-2.383,3.167-4.534,5.31-6.301c1.232-1,2.615-1.88,4.158-2.535c1.751-0.752,3.726-1.2,5.749-1.2 c1.703,0,3.383,0.32,4.918,0.872c1.536,0.552,2.927,1.319,4.175,2.231c2.495,1.839,4.422,4.174,6.029,6.789 c1.072,1.751,1.999,3.63,2.791,5.646c1.064,2.679,1.911,5.581,2.535,8.66c0.839,4.111,1.287,8.541,1.287,13.179 C450.641,187.571,450.049,192.626,448.961,197.232z"/> <path class="st0" d="M340.694,304.58v59.944h36.656c-5.645-6.222-10.852-13.258-15.641-21.064 C357.798,337.071,344.788,317.887,340.694,304.58z"/> <path class="st0" d="M377.303,0H88.652c-3.871,0-7.63,0.672-11.484,2.047c-3.854,1.376-7.789,3.47-11.763,6.397 c-7.949,5.79-16.002,14.874-23.311,26.821c-4.87,7.965-9.42,17.178-13.49,27.422c-5.43,13.666-10.004,29.18-13.427,46.037 c-4.574,22.495-7.133,47.373-7.133,73.538v6.341h15.034v12.691H8.045V512c0.528-0.448,1.072-0.904,1.663-1.384H9.9 c19.544-0.232,19.456-16.369,39.007-16.361c19.545,0.008,19.537,16.386,39.089,16.401c19.528,0.008,19.544-16.369,39.072-16.361 c19.527,0.008,19.512,16.378,39.04,16.393c19.512,0.016,19.52-16.361,39.032-16.353c19.52,0.008,19.513,16.385,39.033,16.401 c19.528,0.016,19.528-16.369,39.056-16.362c19.52,0.008,19.424,16.169,38.944,16.394c0.52,0.432,1,0.832,1.472,1.215v-310.69 h-22.63v-12.691h22.63v-6.341c0-32.083,3.582-62.455,10.036-89.66c6.47-27.205,15.778-51.26,27.549-70.748 C366.139,13.738,371.481,6.397,377.303,0z M77.073,201.294H49.02v-12.691h28.053V201.294z M142.526,201.294h-28.053v-12.691h28.053 V201.294z M207.979,201.294h-28.053v-12.691h28.053V201.294z M273.441,201.294h-28.053v-12.691h28.053V201.294z"/> </g> </g>

</svg>
