<!DOCTYPE svg PUBLIC "-//W3C//DTD SVG 1.1//EN" "http://www.w3.org/Graphics/SVG/1.1/DTD/svg11.dtd">

<!-- Uploaded to: SVG Repo, www.svgrepo.com, Transformed by: SVG Repo Mixer Tools -->
<svg fill="black" height="20" width="20" version="1.1" id="Capa_1" xmlns="http://www.w3.org/2000/svg" xmlns:xlink="http://www.w3.org/1999/xlink" viewBox="0 0 52.027 52.027" xml:space="preserve" stroke="black" stroke-width="0.00052027">

<g id="SVGRepo_bgCarrier" stroke-width="0"/>

<g id="SVGRepo_tracerCarrier" stroke-linecap="round" stroke-linejoin="round"/>

<g id="SVGRepo_iconCarrier"> <g> <path d="M49.021,41.667l-1.575-0.716c0.334-0.457,0.534-0.75,0.547-0.77l0.062-0.104c1.832-3.558,1.767-7.141-0.109-10.139H44.64 c-0.613,0.002-14.732,0.017-15.265,15.299l0,1.039c1.834,1.571,3.975,2.4,6.246,2.4c1.33,0,2.68-0.278,4.029-0.82l0.355,2.482 c0.139,0.978,0.959,1.688,1.95,1.688c0.72,0,1.358-0.378,1.711-1.012l2.698-4.876l2.465-0.821c0.771-0.257,1.298-0.947,1.341-1.76 C50.213,42.745,49.762,42.003,49.021,41.667z M37.572,31.863c0.392-0.388,1.024-0.384,1.414,0.01 c1.476,1.494,3.004,3.143,4.191,5.061c0.29,0.47,0.146,1.086-0.324,1.377c-0.164,0.102-0.346,0.149-0.525,0.149 c-0.335,0-0.662-0.168-0.852-0.474c-1.083-1.75-2.521-3.297-3.914-4.709C37.175,32.885,37.179,32.251,37.572,31.863z M38.241,43.008c-0.194,0.284-0.508,0.438-0.828,0.438c-0.193,0-0.39-0.056-0.562-0.173c-1.53-1.042-3.088-2.344-4.76-3.979 c-0.395-0.386-0.401-1.02-0.016-1.414c0.388-0.394,1.021-0.401,1.414-0.016c1.587,1.553,3.055,2.781,4.486,3.755 C38.433,41.93,38.552,42.552,38.241,43.008z M45.731,44.243c-0.468,0.155-0.856,0.479-1.096,0.909L41.97,49.95l-0.43-3.006h0 l-0.39-2.725c0.517-0.396,0.973-0.794,1.386-1.207c0.231-0.231,0.456-0.473,0.675-0.724c0.217-0.25,0.428-0.51,0.632-0.779 l2.359,1.073l0.024-0.031l1.971,0.869L45.731,44.243z"/> <path d="M38.502,20.701c0.066,0,0.132,0,0.196,0.001h0.4l-4-4H31.64C31.027,16.724,16.907,16.72,16.375,32l0,1.334l5.046,5.046 v-0.415C21.897,24.272,32.685,20.701,38.502,20.701z M23.049,28.694c-0.195,0.195-0.451,0.293-0.707,0.293 s-0.512-0.098-0.707-0.293l-2.583-2.584c-0.391-0.391-0.391-1.023,0-1.414s1.023-0.391,1.414,0l2.583,2.584 C23.439,27.671,23.439,28.304,23.049,28.694z M24.671,19.024c0.391-0.391,1.023-0.391,1.414,0l2.471,2.471 c0.391,0.391,0.391,1.023,0,1.414c-0.195,0.195-0.451,0.293-0.707,0.293s-0.512-0.098-0.707-0.293l-2.471-2.471 C24.28,20.048,24.28,19.415,24.671,19.024z"/> <path d="M44.458,27.938c0.065,0,0.131,0,0.195,0.001h1.682l-5.237-5.237h-2.413C38.07,22.717,23.952,22.72,23.42,38l0,2.378 l4.005,4.004C28.298,31.373,38.761,27.938,44.458,27.938z M29.587,35.232c-0.195,0.195-0.451,0.293-0.707,0.293 s-0.512-0.098-0.707-0.293l-2.451-2.451c-0.391-0.391-0.391-1.023,0-1.414s1.023-0.391,1.414,0l2.451,2.451 C29.977,34.209,29.977,34.842,29.587,35.232z M31.03,25.385c0.391-0.391,1.023-0.391,1.414,0l2.469,2.469 c0.391,0.391,0.391,1.023,0,1.414c-0.195,0.195-0.451,0.293-0.707,0.293s-0.512-0.098-0.707-0.293l-2.469-2.469 C30.64,26.408,30.64,25.775,31.03,25.385z"/> <path d="M25.653,8.203h0.946l-0.726-0.726c-2.352-2.352-5.491-3.646-8.839-3.646c-2.102,0-4.122,0.512-5.916,1.474l-0.538-3.764 C10.453,0.648,9.704,0,8.799,0C8.142,0,7.557,0.346,7.236,0.924l-2.199,3.96L3.081,5.536C2.376,5.771,1.895,6.402,1.857,7.144 C1.818,7.886,2.23,8.563,2.906,8.871l3.174,1.442c-2.596,4.745-1.897,10.828,2.116,14.842l0.187,0.187 C8.927,11.601,19.884,8.102,25.653,8.203z M7.19,8.622L4.211,7.268l1.532-0.511C6.17,6.615,6.525,6.321,6.746,5.926L8.687,2.43 l0.585,4.098C9.143,6.631,9.017,6.74,8.89,6.848C8.645,7.055,8.411,7.262,8.198,7.476c0,0-0.001,0.001-0.002,0.002l0,0 c0,0,0,0-0.001,0C8.194,7.48,8.193,7.481,8.192,7.482c-0.351,0.352-0.67,0.723-0.971,1.104C7.211,8.599,7.2,8.609,7.19,8.622z M10.297,16.073c-0.19,0.166-0.426,0.248-0.66,0.248c-0.277,0-0.554-0.115-0.752-0.34c-0.146-0.168-0.274-0.307-0.388-0.43 c-0.554-0.6-0.859-0.961-1.222-1.994c-0.184-0.521,0.091-1.092,0.612-1.274c0.52-0.184,1.092,0.09,1.274,0.612 c0.243,0.691,0.362,0.82,0.805,1.301c0.123,0.133,0.262,0.283,0.422,0.465C10.753,15.077,10.712,15.709,10.297,16.073z M12.526,7.86c0.213-0.511,0.803-0.751,1.309-0.535c1.062,0.445,1.479,0.871,2.111,1.515l0.172,0.175 c0.389,0.394,0.385,1.026-0.008,1.414c-0.195,0.193-0.449,0.289-0.703,0.289c-0.258,0-0.516-0.1-0.711-0.297l-0.177-0.18 c-0.574-0.585-0.769-0.782-1.458-1.072C12.552,8.955,12.312,8.369,12.526,7.86z"/> <path d="M31.457,14.701c0.066,0,0.132,0,0.196,0.001h1.445l-4.499-4.499h-2.96c-0.61,0-14.732,0.017-15.265,15.299l0,1.832 l4.036,4.036C15.178,18.175,25.727,14.701,31.457,14.701z M16.636,22.281c-0.195,0.195-0.451,0.293-0.707,0.293 s-0.512-0.098-0.707-0.293l-2.48-2.481c-0.391-0.391-0.391-1.023,0-1.414s1.023-0.391,1.414,0l2.48,2.481 C17.026,21.258,17.026,21.891,16.636,22.281z M18.166,12.52c0.391-0.391,1.023-0.391,1.414,0l2.739,2.74 c0.391,0.391,0.391,1.023,0,1.414c-0.195,0.195-0.451,0.293-0.707,0.293s-0.512-0.098-0.707-0.293l-2.739-2.74 C17.775,13.543,17.775,12.91,18.166,12.52z"/> </g> </g>

</svg>
