<!DOCTYPE svg PUBLIC "-//W3C//DTD SVG 1.1//EN" "http://www.w3.org/Graphics/SVG/1.1/DTD/svg11.dtd">

<!-- Uploaded to: SVG Repo, www.svgrepo.com, Transformed by: SVG Repo Mixer Tools -->
<svg fill="orange" version="1.1" id="Layer_1" xmlns="http://www.w3.org/2000/svg" xmlns:xlink="http://www.w3.org/1999/xlink" width="20" height="20" viewBox="0 0 512 512" enable-background="new 0 0 512 512" xml:space="preserve">

<g id="SVGRepo_orangegCarrier" stroke-width="0"/>

<g id="SVGRepo_tracerCarrier" stroke-linecap="round" stroke-linejoin="round"/>

<g id="SVGRepo_iconCarrier"> <g> <path d="M461.147,206.201L171.623,64.86c-21.992-10.738-49.227-9.582-70.226,2.973C69.145,87.135,14.132,134.625,8,236.725v183.474 c0,11.796,4.904,23.22,13.436,31.34c8.088,7.699,18.688,11.941,29.854,11.941l410.061-20.077 c23.074-1.131,41.156-20.118,41.156-43.225V272.419C502.506,244.465,486.274,218.473,461.147,206.201z M469.412,305.041v5.177 c-2.447,3.146-8.766,6.719-17.92,6.719c-11.877,0-19.14-6.027-19.14-9.308s7.263-9.307,19.14-9.307 C460.646,298.322,466.965,301.894,469.412,305.041z M321.358,253.271c-1.741,12.08-18.614,22.299-37.925,22.299 c-19.31,0-36.184-10.22-37.924-22.299H321.358z M290.673,416.216c0-18.251,14.842-33.093,33.093-33.093 c17.686,0,32.181,13.953,33.053,31.429l-50.415,3.318l-15.63,0.768C290.713,417.836,290.673,417.026,290.673,416.216z M459.733,410.342l-70.028,3.438c-1.313-35.345-30.277-63.75-65.939-63.75c-36.494,0-66.186,29.692-66.186,66.187 c0,1.36,0.343,2.679,0.428,4.031L51.289,430.387c-2.625,0-5.123-1.002-7.037-2.82c-2.004-1.915-3.158-4.597-3.158-7.369 l-0.029-166.928h171.254c1.306,31.2,31.955,55.392,71.115,55.392s69.811-24.192,71.115-55.392c0,0,82.281,0,109.709,0 c3.246,0,3.834,9.261,4.464,14.331c-5.36-1.522-11.138-2.374-17.229-2.374c-29.287,0-52.232,18.623-52.232,42.4 c0,23.778,22.945,42.4,52.232,42.4c6.367,0,12.362-0.964,17.92-2.618v52.767C469.412,405.616,465.163,410.083,459.733,410.342z"/> <path d="M121.758,265.229c-34.596,0-62.736,26.597-62.736,59.287c0,32.697,28.141,59.294,62.736,59.294 s62.736-26.598,62.736-59.294C184.494,291.826,156.354,265.229,121.758,265.229z M121.758,350.716 c-16.345,0-29.644-11.755-29.644-26.201s13.299-26.193,29.644-26.193c16.344,0,29.643,11.748,29.643,26.193 S138.102,350.716,121.758,350.716z"/> </g> </g>

</svg>
