<!DOCTYPE svg PUBLIC "-//W3C//DTD SVG 1.1//EN" "http://www.w3.org/Graphics/SVG/1.1/DTD/svg11.dtd">

<!-- Uploaded to: SVG Repo, www.svgrepo.com, Transformed by: SVG Repo Mixer Tools -->
<svg fill="orange" version="1.1" id="Layer_1" xmlns="http://www.w3.org/2000/svg" xmlns:xlink="http://www.w3.org/1999/xlink" width="20" height="20" viewBox="0 0 512 512" enable-background="new 0 0 512 512" xml:space="preserve" stroke="orange" stroke-width="0.00512">

<g id="SVGRepo_bgCarrier" stroke-width="0"/>

<g id="SVGRepo_tracerCarrier" stroke-linecap="round" stroke-linejoin="round"/>

<g id="SVGRepo_iconCarrier"> <g> <path d="M483.174,33.851c-13.086-13.085-30.832-20.438-49.332-20.438s-36.246,7.353-49.334,20.43L30.914,387.445 c-27.229,27.245-27.246,71.413,0,98.666C44,499.189,61.73,506.541,80.23,506.541s36.23-7.343,49.317-20.421l353.61-353.609 C510.403,105.271,510.403,61.097,483.174,33.851z M399.021,137.979h-0.017h-0.017c-5.093,0-9.865,1.978-13.438,5.565 c-3.603,3.595-5.572,8.393-5.572,13.503l-0.225,5.301c-1.217,14.679-7.528,28.342-18.084,38.921 c-11.852,11.837-27.549,18.332-44.223,18.332c-0.016,0-0.033,0-0.049,0c-5.125,0-9.865,1.961-13.391,5.517 c-3.459,3.42-5.414,7.817-5.654,12.574v1.083c-0.047,34.437-28.094,62.474-62.53,62.498h-0.88c-4.76,0.2-9.242,2.17-12.671,5.606 c-3.62,3.604-5.589,8.361-5.573,13.415c0,16.521-6.68,32.611-18.308,44.263c-11.147,11.148-26.332,17.724-41.95,18.26l-2.273,0.047 c-5.094,0-9.914,2.011-13.582,5.647c-3.523,3.531-5.558,8.416-5.541,13.357c0.047,11.324-9.084,20.541-20.408,20.599 c-0.03,0-0.063,0-0.094,0c-11.277,0-20.455-9.114-20.503-20.407c-0.079-15.808,6.343-31.329,17.603-42.59 c10.906-10.835,25.115-17.01,40.268-17.569l2.402-0.058c0.016,0,0.048,0,0.064,0c5.557,0,11.019-2.281,15.008-6.27 c4.005-4.012,6.311-9.546,6.311-15.168c-0.049-16.065,6.199-31.186,17.603-42.549c11.356-11.348,26.444-17.604,42.446-17.604 c0.016,0,0.032,0,0.047,0h0.803c11.147-0.417,20.165-9.354,20.725-20.461v-1.13c0.032-16.152,6.311-31.265,17.697-42.549 c11.004-11.092,26.479-17.515,42.352-17.515c0.031,0,0.08,0,0.128,0c5.687,0,11.099-2.242,15.185-6.318 c4.051-4.061,6.295-9.459,6.278-15.168l0.239-5.358c1.217-14.054,7.273-27.1,17.332-37.184 c11.324-11.349,26.411-17.594,42.46-17.594c0.017,0,0.033,0,0.05,0c11.323,0.007,20.502,9.193,20.485,20.517 C419.506,128.81,410.328,137.979,399.021,137.979z"/> <path d="M46.131,329.832c2.996,0,5.879-1.192,7.992-3.307L323.563,57.1c2.114-2.122,3.3-4.998,3.3-8 c0-3.003-1.186-5.878-3.316-8.001c-27.117-27.108-71.051-27.1-98.153,0L38.139,228.364c-27.102,27.108-27.102,71.043,0,98.153 C40.253,328.64,43.135,329.832,46.131,329.832z"/> <path d="M459.918,193.438l-269.426,269.4c-4.402,4.42-4.402,11.588-0.016,16.01c27.118,27.117,71.069,27.117,98.186,0 l187.271-187.257c27.086-27.102,27.086-71.045,0-98.162C471.498,189.01,464.321,189.018,459.918,193.438z"/> </g> </g>

</svg>
