<svg fill="green" height="20" width="20" xmlns="http://www.w3.org/2000/svg" viewBox="0 0 512 512" xml:space="preserve"><path class="st0" d="M329.597 146.431c2.282-29.643 56.257-57.588 59.522-83.982 1.4-11.3-3.376-20.683-13.82-20.098-32.527 1.85-75.523 5.489-134.384 10.215-8.645.695-78.934 5.862-92.432 8.907-13.498 3.021-27.674 9.002-41.376 19.31-12.276 9.239-21.329 22.203-27.556 37.066-6.184 14.906-9.544 31.882-9.552 49.843 0 24.79 6.482 51.565 21.566 76.507 10.537 17.435 25.824 33.156 44.574 47.9 5.167 4.064 3.928 9.799 2.41 12.294C108.66 353.386 92.185 415.276 137.166 512h276.42c98.795-212.427-92.422-256.212-83.989-365.569m-204.216 77.305c-11.173-18.461-15.864-38.102-15.864-56.044-.008-12.964 2.494-24.993 6.524-34.64 4.005-9.68 9.545-16.781 14.745-20.624 9.417-7 17.663-10.384 26.436-12.404 8.746-2.002 11.716-2.587 22.516-2.571 4.318-.008 12.624 1.086 19.759 3.293 18.673 6.583 21.66 45.685 21.66 45.685 5.421 39.73-17.019 71.315-44.057 104.792-6.15 7.61-18.775 8.162-25.231 3.054-11.641-9.187-20.006-19.868-26.488-30.541M382.867 465.89H167.953c-24.162-67.37-8.891-108.127 12.616-141.732h191.726c22.738 36.66 33.936 77.543 10.572 141.732M240.915 37.744c29.761-2.384 55.45-4.497 77.796-6.236L323.005 0H229.14l5.218 38.254c3.095-.238 5.403-.417 6.557-.51"/></svg>
