<!DOCTYPE svg PUBLIC "-//W3C//DTD SVG 1.1//EN" "http://www.w3.org/Graphics/SVG/1.1/DTD/svg11.dtd">

<!-- Uploaded to: SVG Repo, www.svgrepo.com, Transformed by: SVG Repo Mixer Tools -->
<svg version="1.1" id="Layer_1" xmlns="http://www.w3.org/2000/svg" xmlns:xlink="http://www.w3.org/1999/xlink" viewBox="0 0 512 512" xml:space="preserve" width="20" height="20" fill="orange" stroke="orange" stroke-width="0.00512">

<g id="SVGRepo_bgCarrier" stroke-width="0"/>

<g id="SVGRepo_tracerCarrier" stroke-linecap="round" stroke-linejoin="round"/>

<g id="SVGRepo_iconCarrier"> <g> <path style="fill:orange;" d="M404.888,438.925v36.133c0,20.401-16.542,36.943-36.943,36.943H144.049 c-20.401,0-36.943-16.542-36.943-36.943v-36.133l148.891-11.253L404.888,438.925z"/> <path style="fill:orange;" d="M404.888,209.121v79.748l-148.891,22.505l-148.891-22.505V128.9 c0-37.865,30.81-68.664,68.664-68.664h43.368V36.144h73.694V64.85C357.244,81.245,404.888,139.613,404.888,209.121z M219.139,252.725V96.38h-43.368c-17.937,0-32.52,14.584-32.52,32.52v124.624l0.799-0.799H219.139z"/> </g> <g> <rect x="107.112" y="288.869" style="fill:orange;" width="297.781" height="150.055"/> <rect x="219.144" style="fill:orange;" width="73.694" height="36.144"/> </g> <g> <path style="fill:#ffffff;" d="M307.597,389.777c-2.676,0-5.193-1.269-6.784-3.421l-19.021-25.711l-19.016,25.71 c-1.591,2.152-4.108,3.421-6.785,3.421s-5.194-1.269-6.785-3.421l-19.015-25.709l-19.015,25.709 c-1.591,2.152-4.108,3.421-6.785,3.421c-2.677,0-5.194-1.269-6.785-3.421l-25.8-34.884c-2.772-3.748-1.98-9.033,1.767-11.804 c3.747-2.773,9.033-1.982,11.804,1.767l19.015,25.709l19.015-25.709c1.591-2.151,4.108-3.421,6.785-3.421 c2.677,0,5.194,1.269,6.785,3.421l19.015,25.71l19.016-25.71c1.592-2.151,4.109-3.421,6.785-3.421c2.676,0,5.193,1.269,6.784,3.421 l19.021,25.711l19.019-25.711c2.772-3.747,8.056-4.537,11.803-1.766c3.747,2.772,4.538,8.057,1.766,11.804l-25.805,34.884 C312.791,388.508,310.273,389.777,307.597,389.777z"/> <path style="fill:#ffffff;" d="M295.646,44.583h-79.321c-4.661,0-8.44-3.779-8.44-8.44s3.779-8.44,8.44-8.44h79.321 c4.662,0,8.44,3.779,8.44,8.44S300.308,44.583,295.646,44.583z"/> </g> </g>

</svg>
